/* XPM */
static char *_1e62c905cbc4368948bf490d39f045dhjQYBOaXEydSjxBd[] = {
/* columns rows colors chars-per-pixel */
"22 21 8 1 ",
"  c None",
". c black",
"X c #20A060",
"o c #A0E0A0",
"O c #F8F8F8",
"+ c #E0C080",
"@ c #E04020",
"# c #E08020",
/* pixels */
"                      ",
"                      ",
"                      ",
"              ...     ",
"             .Xoo.    ",
"            .Xoooo.   ",
"           .Xooooo.   ",
"       ....XooXX..    ",
"      .OO+@XX..       ",
"     .O++#@@.         ",
"    .O#+#+#+@.        ",
"    .#+#@#+#@.        ",
"   .#+#+#@@@.         ",
"   .+#@##@..          ",
"   .#+@@@.            ",
"   .+##@.             ",
"   .@#@.              ",
"    ...               ",
"                      ",
"                      ",
"                      "
};
